<svg width="172" height="45" viewBox="0 0 172 45" fill="none" xmlns="http://www.w3.org/2000/svg">
<path d="M31.2329 37.3059H145.616C145.403 31.9813 143.133 26.9459 139.283 23.2555C135.433 19.565 130.301 17.5061 124.964 17.5104C122.422 11.7626 118.101 6.97997 112.636 3.8648C107.171 0.749626 100.85 -0.533953 94.6 0.202547C88.3504 0.939047 82.502 3.65682 77.9135 7.95678C73.325 12.2567 70.2383 17.9123 69.1066 24.093C68.5823 24.093 68.0581 24.093 67.5179 24.093C65.3095 24.093 63.1317 24.6095 61.1592 25.6011C59.1866 26.5927 57.4742 28.0319 56.159 29.8033C54.1503 29.3092 52.0453 29.3653 50.0658 29.9654C48.0863 30.5656 46.3056 31.6877 44.9113 33.2136C42.5445 31.9894 39.7913 31.7406 37.2428 32.5205C34.6943 33.3005 32.5537 35.047 31.2806 37.3852L31.2329 37.3059Z" fill="black" fill-opacity="0.12"/>
<path d="M170.4 38.908H16.9987C16.729 38.908 16.4704 38.801 16.2797 38.6107C16.0891 38.4203 15.9819 38.1621 15.9819 37.8928C15.9819 37.6221 16.0885 37.3622 16.2787 37.1693C16.469 36.9764 16.7276 36.866 16.9987 36.8618H170.4C170.671 36.866 170.929 36.9764 171.12 37.1693C171.31 37.3622 171.416 37.6221 171.416 37.8928C171.416 38.1621 171.309 38.4203 171.119 38.6107C170.928 38.801 170.669 38.908 170.4 38.908Z" fill="black" fill-opacity="0.12"/>
<path d="M57.2712 44.6817H1.01674C0.745633 44.6775 0.48704 44.567 0.296807 44.3741C0.106574 44.1812 -3.20822e-05 43.9214 7.24231e-09 43.6507C7.24227e-09 43.3814 0.107101 43.1232 0.297777 42.9328C0.488453 42.7425 0.747084 42.6355 1.01674 42.6355H57.2712C57.5408 42.6355 57.7994 42.7425 57.9901 42.9328C58.1808 43.1232 58.2879 43.3814 58.2879 43.6507C58.2879 43.9214 58.1813 44.1812 57.9911 44.3741C57.8009 44.567 57.5423 44.6775 57.2712 44.6817Z" fill="black" fill-opacity="0.12"/>
<path d="M123.073 44.6815H92.1898C92.0542 44.6815 91.92 44.6549 91.7947 44.6031C91.6694 44.5513 91.5555 44.4753 91.4597 44.3796C91.3638 44.2838 91.2877 44.1702 91.2358 44.0451C91.1839 43.92 91.1572 43.7859 91.1572 43.6505C91.1572 43.5159 91.184 43.3826 91.2361 43.2584C91.2882 43.1341 91.3645 43.0215 91.4606 42.9271C91.5567 42.8326 91.6707 42.7581 91.7959 42.7081C91.9211 42.658 92.055 42.6333 92.1898 42.6354H123.073C123.208 42.6333 123.342 42.658 123.467 42.7081C123.593 42.7581 123.707 42.8326 123.803 42.9271C123.899 43.0215 123.975 43.1341 124.027 43.2584C124.079 43.3826 124.106 43.5159 124.106 43.6505C124.106 43.7859 124.079 43.92 124.027 44.0451C123.976 44.1702 123.899 44.2838 123.804 44.3796C123.708 44.4753 123.594 44.5513 123.469 44.6031C123.343 44.6549 123.209 44.6815 123.073 44.6815Z" fill="black" fill-opacity="0.12"/>
</svg>
