<svg width="172" height="45" viewBox="0 0 172 45" fill="none" xmlns="http://www.w3.org/2000/svg">
<rect width="172" height="45" fill="#151515"/>
<path d="M-1602 -856C-1602 -857.105 -1601.1 -858 -1600 -858H1683C1684.1 -858 1685 -857.105 1685 -856V772C1685 773.105 1684.1 774 1683 774H-1600C-1601.1 774 -1602 773.105 -1602 772V-856Z" fill="#444444"/>
<path d="M-1600 -857H1683V-859H-1600V-857ZM1684 -856V772H1686V-856H1684ZM1683 773H-1600V775H1683V773ZM-1601 772V-856H-1603V772H-1601ZM-1600 773C-1600.55 773 -1601 772.552 -1601 772H-1603C-1603 773.657 -1601.66 775 -1600 775V773ZM1684 772C1684 772.552 1683.55 773 1683 773V775C1684.66 775 1686 773.657 1686 772H1684ZM1683 -857C1683.55 -857 1684 -856.552 1684 -856H1686C1686 -857.657 1684.66 -859 1683 -859V-857ZM-1600 -859C-1601.66 -859 -1603 -857.657 -1603 -856H-1601C-1601 -856.552 -1600.55 -857 -1600 -857V-859Z" fill="white" fill-opacity="0.1"/>
<g clip-path="url(#clip0_5488_10020)">
<rect width="1131" height="1920" transform="matrix(-4.37114e-08 1 1 4.37114e-08 -1502 -758)" fill="url(#paint0_linear_5488_10020)"/>
<path d="M31.2329 37.3059H145.616C145.403 31.9813 143.133 26.9459 139.283 23.2555C135.433 19.565 130.301 17.5061 124.964 17.5104C122.422 11.7626 118.101 6.97997 112.636 3.8648C107.171 0.749626 100.85 -0.533953 94.6 0.202547C88.3504 0.939047 82.502 3.65682 77.9135 7.95678C73.325 12.2567 70.2383 17.9123 69.1066 24.093C68.5823 24.093 68.0581 24.093 67.5179 24.093C65.3095 24.093 63.1317 24.6095 61.1592 25.6011C59.1866 26.5927 57.4742 28.0319 56.159 29.8033C54.1503 29.3092 52.0453 29.3653 50.0658 29.9654C48.0863 30.5656 46.3056 31.6877 44.9113 33.2136C42.5445 31.9894 39.7913 31.7406 37.2428 32.5205C34.6943 33.3005 32.5537 35.047 31.2806 37.3852L31.2329 37.3059Z" fill="black" fill-opacity="0.12"/>
<path d="M170.399 38.908H16.9984C16.7288 38.908 16.4702 38.801 16.2795 38.6107C16.0888 38.4203 15.9817 38.1621 15.9817 37.8928C15.9817 37.6221 16.0883 37.3622 16.2785 37.1693C16.4687 36.9764 16.7273 36.866 16.9984 36.8618H170.399C170.67 36.866 170.929 36.9764 171.119 37.1693C171.31 37.3622 171.416 37.6221 171.416 37.8928C171.416 38.1621 171.309 38.4203 171.118 38.6107C170.928 38.801 170.669 38.908 170.399 38.908Z" fill="black" fill-opacity="0.12"/>
<path d="M57.2712 44.6817H1.01674C0.745633 44.6775 0.48704 44.567 0.296807 44.3741C0.106574 44.1812 -3.20822e-05 43.9214 7.24231e-09 43.6507C7.24227e-09 43.3814 0.107101 43.1232 0.297777 42.9328C0.488453 42.7425 0.747084 42.6355 1.01674 42.6355H57.2712C57.5408 42.6355 57.7994 42.7425 57.9901 42.9328C58.1808 43.1232 58.2879 43.3814 58.2879 43.6507C58.2879 43.9214 58.1813 44.1812 57.9911 44.3741C57.8009 44.567 57.5423 44.6775 57.2712 44.6817Z" fill="black" fill-opacity="0.12"/>
<path d="M123.073 44.6815H92.1898C92.0542 44.6815 91.92 44.6549 91.7947 44.6031C91.6694 44.5513 91.5555 44.4753 91.4597 44.3796C91.3638 44.2838 91.2877 44.1702 91.2358 44.0451C91.1839 43.92 91.1572 43.7859 91.1572 43.6505C91.1572 43.5159 91.184 43.3826 91.2361 43.2584C91.2882 43.1341 91.3645 43.0215 91.4606 42.9271C91.5567 42.8326 91.6707 42.7581 91.7959 42.7081C91.9211 42.658 92.055 42.6333 92.1898 42.6354H123.073C123.208 42.6333 123.342 42.658 123.467 42.7081C123.593 42.7581 123.707 42.8326 123.803 42.9271C123.899 43.0215 123.975 43.1341 124.027 43.2584C124.079 43.3826 124.106 43.5159 124.106 43.6505C124.106 43.7859 124.079 43.92 124.027 44.0451C123.976 44.1702 123.899 44.2838 123.804 44.3796C123.708 44.4753 123.594 44.5513 123.469 44.6031C123.343 44.6549 123.209 44.6815 123.073 44.6815Z" fill="black" fill-opacity="0.12"/>
<g filter="url(#filter0_b_5488_10020)">
<path d="M808 916C771.952 801.004 653.063 550.539 263.467 215.448C63.469 43.4664 -24.5714 -114.866 -95.2811 -241.805C-138.608 -319.606 -176.043 -386.829 -230.115 -443.815C-308.104 -525.711 -405.156 -567 -518.5 -567C-631.844 -567 -729.243 -525.37 -806.885 -443.815C-860.957 -386.829 -898.391 -319.606 -941.718 -241.805C-1012.43 -114.866 -1100.47 43.4664 -1300.47 215.448C-1690.06 550.539 -1808.95 801.004 -1845 916C-877.086 916 -76.4763 916 808 916Z" fill="#F7F7F6" fill-opacity="0.05"/>
<path d="M-95.2811 -241.805L-95.7179 -241.561L-95.3982 -240.987C-24.7355 -114.133 63.3754 44.0453 263.141 215.827C651.949 550.24 771.06 800.318 807.319 915.5H802.818H797.639H792.461H787.285H782.111H776.939H771.769H766.601H761.434H756.269H751.106H745.945H740.786H735.628H730.472H725.318H720.166H715.015H709.866H704.719H699.574H694.43H689.288H684.147H679.009H673.872H668.736H663.602H658.47H653.339H648.21H643.082H637.956H632.832H627.709H622.587H617.468H612.349H607.232H602.117H597.003H591.89H586.779H581.67H576.562H571.455H566.349H561.245H556.143H551.042H545.942H540.843H535.746H530.65H525.556H520.462H515.371H510.28H505.19H500.102H495.015H489.93H484.845H479.762H474.68H469.599H464.52H459.441H454.364H449.288H444.212H439.139H434.066H428.994H423.923H418.854H413.785H408.718H403.652H398.586H393.522H388.458H383.396H378.335H373.274H368.215H363.157H358.099H353.042H347.987H342.932H337.878H332.825H327.773H322.722H317.672H312.622H307.573H302.526H297.479H292.432H287.387H282.342H277.298H272.255H267.213H262.171H257.13H252.09H247.05H242.011H236.973H231.935H226.898H221.862H216.826H211.791H206.757H201.723H196.69H191.657H186.625H181.593H176.562H171.532H166.502H161.472H156.443H151.415H146.387H141.359H136.332H131.305H126.279H121.253H116.228H111.203H106.178H101.154H96.1296H91.1061H86.0828H81.0598H76.0372H71.0149H65.9928H60.9711H55.9496H50.9283H45.9073H40.8866H35.8661H30.8458H25.8257H20.8058H15.786H10.7665H5.74707H0.727781H-4.29138H-9.31031H-14.3292H-19.348H-24.3667H-29.3854H-34.4039H-39.4225H-44.4409H-49.4594H-54.4778H-59.4961H-64.5145H-69.533H-74.5514H-79.5698H-84.5884H-89.6069H-94.6256H-99.6443H-104.663H-109.682H-114.701H-119.72H-124.74H-129.759H-134.778H-139.798H-144.818H-149.838H-154.859H-159.879H-164.9H-169.921H-174.942H-179.964H-184.985H-190.007H-195.03H-200.052H-205.075H-210.099H-215.122H-220.146H-225.171H-230.195H-235.221H-240.246H-245.272H-250.298H-255.325H-260.352H-265.38H-270.408H-275.436H-280.465H-285.495H-290.525H-295.556H-300.587H-305.618H-310.651H-315.683H-320.717H-325.75H-330.785H-335.82H-340.856H-345.892H-350.929H-355.967H-361.005H-366.044H-371.084H-376.124H-381.165H-386.207H-391.249H-396.293H-401.337H-406.381H-411.427H-416.473H-421.52H-426.568H-431.617H-436.667H-441.717H-446.768H-451.821H-456.874H-461.927H-466.982H-472.038H-477.095H-482.152H-487.211H-492.27H-497.331H-502.392H-507.455H-512.518H-517.582H-522.648H-527.714H-532.782H-537.85H-542.92H-547.991H-553.063H-558.136H-563.209H-568.285H-573.361H-578.438H-583.517H-588.597H-593.678H-598.76H-603.843H-608.928H-614.013H-619.1H-624.189H-629.278H-634.369H-639.461H-644.554H-649.649H-654.745H-659.842H-664.941H-670.041H-675.142H-680.245H-685.349H-690.454H-695.561H-700.67H-705.779H-710.89H-716.003H-721.117H-726.233H-731.35H-736.468H-741.588H-746.71H-751.833H-756.957H-762.083H-767.211H-772.341H-777.471H-782.604H-787.738H-792.874H-798.011H-803.15H-808.291H-813.433H-818.577H-823.722H-828.87H-834.019H-839.169H-844.322H-849.476H-854.632H-859.79H-864.949H-870.111H-875.274H-880.439H-885.605H-890.774H-895.944H-901.117H-906.291H-911.467H-916.645H-921.824H-927.006H-932.19H-937.375H-942.563H-947.752H-952.943H-958.137H-963.332H-968.53H-973.729H-978.93H-984.134H-989.339H-994.547H-999.756H-1004.97H-1010.18H-1015.4H-1020.62H-1025.84H-1031.06H-1036.28H-1041.51H-1046.74H-1051.97H-1057.2H-1062.44H-1067.67H-1072.91H-1078.16H-1083.4H-1088.65H-1093.9H-1099.15H-1104.4H-1109.65H-1114.91H-1120.17H-1125.44H-1130.7H-1135.97H-1141.24H-1146.51H-1151.78H-1157.06H-1162.34H-1167.62H-1172.91H-1178.19H-1183.48H-1188.77H-1194.07H-1199.36H-1204.66H-1209.96H-1215.27H-1220.57H-1225.88H-1231.19H-1236.51H-1241.83H-1247.14H-1252.47H-1257.79H-1263.12H-1268.45H-1273.78H-1279.12H-1284.45H-1289.79H-1295.14H-1300.48H-1305.83H-1311.18H-1316.54H-1321.89H-1327.25H-1332.62H-1337.98H-1343.35H-1348.72H-1354.09H-1359.47H-1364.85H-1370.23H-1375.62H-1381.01H-1386.4H-1391.79H-1397.19H-1402.59H-1407.99H-1413.39H-1418.8H-1424.21H-1429.63H-1435.04H-1440.46H-1445.89H-1451.31H-1456.74H-1462.18H-1467.61H-1473.05H-1478.49H-1483.94H-1489.38H-1494.83H-1500.29H-1505.75H-1511.21H-1516.67H-1522.14H-1527.61H-1533.08H-1538.55H-1544.03H-1549.52H-1555H-1560.49H-1565.98H-1571.48H-1576.98H-1582.48H-1587.99H-1593.49H-1599.01H-1604.52H-1610.04H-1615.56H-1621.09H-1626.62H-1632.15H-1637.69H-1643.22H-1648.77H-1654.31H-1659.86H-1665.42H-1670.97H-1676.53H-1682.09H-1687.66H-1693.23H-1698.81H-1704.38H-1709.96H-1715.55H-1721.14H-1726.73H-1732.32H-1737.92H-1743.52H-1749.13H-1754.74H-1760.35H-1765.97H-1771.59H-1777.22H-1782.84H-1788.48H-1794.11H-1799.75H-1805.39H-1811.04H-1816.69H-1822.35H-1828H-1833.66H-1839.33H-1844.32C-1808.06 800.318 -1688.95 550.24 -1300.14 215.827C-1100.37 44.0452 -1012.26 -114.133 -941.601 -240.988L-941.281 -241.561C-897.948 -319.373 -860.543 -386.538 -806.522 -443.47C-728.975 -524.925 -631.708 -566.5 -518.5 -566.5C-405.292 -566.5 -308.371 -525.266 -230.478 -443.471C-176.457 -386.538 -139.051 -319.373 -95.718 -241.561L-95.2811 -241.805Z" stroke="#F7F7F6" stroke-opacity="0.08"/>
</g>
</g>
<defs>
<filter id="filter0_b_5488_10020" x="-2097.3" y="-819.3" width="3157.6" height="1987.6" filterUnits="userSpaceOnUse" color-interpolation-filters="sRGB">
<feFlood flood-opacity="0" result="BackgroundImageFix"/>
<feGaussianBlur in="BackgroundImageFix" stdDeviation="126.15"/>
<feComposite in2="SourceAlpha" operator="in" result="effect1_backgroundBlur_5488_10020"/>
<feBlend mode="normal" in="SourceGraphic" in2="effect1_backgroundBlur_5488_10020" result="shape"/>
</filter>
<linearGradient id="paint0_linear_5488_10020" x1="-1250.51" y1="960" x2="1131" y2="960" gradientUnits="userSpaceOnUse">
<stop stop-color="#5C80B6"/>
<stop offset="1" stop-color="#283850"/>
</linearGradient>
<clipPath id="clip0_5488_10020">
<rect width="1131" height="1920" fill="white" transform="matrix(-4.37114e-08 1 1 4.37114e-08 -1502 -758)"/>
</clipPath>
</defs>
</svg>
