<svg width="172" height="45" viewBox="0 0 172 45" fill="none" xmlns="http://www.w3.org/2000/svg">
<path d="M140.183 37.3059H25.7996C26.0131 31.9813 28.2829 26.9459 32.1331 23.2555C35.9833 19.565 41.1149 17.5061 46.4522 17.5104C48.9941 11.7626 53.3148 6.97997 58.7799 3.8648C64.2449 0.749626 70.5664 -0.533953 76.816 0.202547C83.0656 0.939047 88.914 3.65682 93.5025 7.95678C98.091 12.2567 101.178 17.9123 102.309 24.093C102.834 24.093 103.358 24.093 103.898 24.093C106.107 24.093 108.284 24.6095 110.257 25.6011C112.229 26.5927 113.942 28.0319 115.257 29.8033C117.266 29.3092 119.371 29.3653 121.35 29.9654C123.33 30.5656 125.11 31.6877 126.505 33.2136C128.872 31.9894 131.625 31.7406 134.173 32.5205C136.722 33.3005 138.862 35.047 140.135 37.3852L140.183 37.3059Z" fill="black" fill-opacity="0.12"/>
<path d="M1.01642 38.908H154.417C154.687 38.908 154.946 38.801 155.136 38.6107C155.327 38.4203 155.434 38.1621 155.434 37.8928C155.434 37.6221 155.328 37.3622 155.137 37.1693C154.947 36.9764 154.688 36.866 154.417 36.8618H1.01642C0.745316 36.866 0.486694 36.9764 0.296463 37.1693C0.106232 37.3622 -0.00038147 37.6221 -0.000350952 37.8928C-0.000350952 38.1621 0.10675 38.4203 0.297424 38.6107C0.488098 38.801 0.746765 38.908 1.01642 38.908Z" fill="black" fill-opacity="0.12"/>
<path d="M114.145 44.6817H170.399C170.67 44.6775 170.929 44.567 171.119 44.3741C171.309 44.1812 171.416 43.9214 171.416 43.6507C171.416 43.3814 171.309 43.1232 171.118 42.9328C170.928 42.7425 170.669 42.6355 170.399 42.6355H114.145C113.875 42.6355 113.617 42.7425 113.426 42.9328C113.235 43.1232 113.128 43.3814 113.128 43.6507C113.128 43.9214 113.235 44.1812 113.425 44.3741C113.615 44.567 113.874 44.6775 114.145 44.6817Z" fill="black" fill-opacity="0.12"/>
<path d="M48.3426 44.6815H79.2262C79.3618 44.6815 79.4961 44.6549 79.6213 44.6031C79.7466 44.5513 79.8605 44.4753 79.9564 44.3796C80.0522 44.2838 80.1283 44.1702 80.1802 44.0451C80.2321 43.92 80.2588 43.7859 80.2588 43.6505C80.2588 43.5159 80.232 43.3826 80.1799 43.2584C80.1278 43.1341 80.0515 43.0215 79.9554 42.9271C79.8593 42.8326 79.7453 42.7581 79.6201 42.7081C79.4949 42.658 79.361 42.6333 79.2262 42.6354H48.3426C48.2078 42.6333 48.0739 42.658 47.9487 42.7081C47.8235 42.7581 47.7095 42.8326 47.6134 42.9271C47.5173 43.0215 47.441 43.1341 47.3889 43.2584C47.3368 43.3826 47.31 43.5159 47.31 43.6505C47.31 43.7859 47.3367 43.92 47.3886 44.0451C47.4405 44.1702 47.5166 44.2838 47.6124 44.3796C47.7083 44.4753 47.8222 44.5513 47.9474 44.6031C48.0727 44.6549 48.207 44.6815 48.3426 44.6815Z" fill="black" fill-opacity="0.12"/>
</svg>
