<svg width="172" height="45" viewBox="0 0 172 45" fill="none" xmlns="http://www.w3.org/2000/svg">
<path d="M140.475 37.3059H26.0916C26.3051 31.9813 28.5749 26.9459 32.4251 23.2555C36.2753 19.565 41.4069 17.5061 46.7442 17.5104C49.286 11.7626 53.6068 6.97997 59.0718 3.8648C64.5369 0.749626 70.8584 -0.533953 77.108 0.202547C83.3576 0.939047 89.206 3.65682 93.7945 7.95678C98.383 12.2567 101.47 17.9123 102.601 24.093C103.126 24.093 103.65 24.093 104.19 24.093C106.399 24.093 108.576 24.6095 110.549 25.6011C112.521 26.5927 114.234 28.0319 115.549 29.8033C117.558 29.3092 119.663 29.3653 121.642 29.9654C123.622 30.5656 125.402 31.6877 126.797 33.2136C129.164 31.9894 131.917 31.7406 134.465 32.5205C137.014 33.3005 139.154 35.047 140.427 37.3852L140.475 37.3059Z" fill="black" fill-opacity="0.12"/>
<path d="M1.30865 38.908H154.71C154.979 38.908 155.238 38.801 155.429 38.6107C155.619 38.4203 155.726 38.1621 155.726 37.8928C155.726 37.6221 155.62 37.3622 155.43 37.1693C155.239 36.9764 154.981 36.866 154.71 36.8618H1.30865C1.03755 36.866 0.778931 36.9764 0.588699 37.1693C0.398468 37.3622 0.291855 37.6221 0.291885 37.8928C0.291885 38.1621 0.398987 38.4203 0.589661 38.6107C0.780334 38.801 1.039 38.908 1.30865 38.908Z" fill="black" fill-opacity="0.12"/>
<path d="M114.437 44.6817H170.691C170.962 44.6775 171.221 44.567 171.411 44.3741C171.601 44.1812 171.708 43.9214 171.708 43.6507C171.708 43.3814 171.601 43.1232 171.41 42.9328C171.22 42.7425 170.961 42.6355 170.691 42.6355H114.437C114.167 42.6355 113.909 42.7425 113.718 42.9328C113.527 43.1232 113.42 43.3814 113.42 43.6507C113.42 43.9214 113.527 44.1812 113.717 44.3741C113.907 44.567 114.166 44.6775 114.437 44.6817Z" fill="black" fill-opacity="0.12"/>
<path d="M48.6346 44.6815H79.5182C79.6538 44.6815 79.7881 44.6549 79.9133 44.6031C80.0386 44.5513 80.1525 44.4753 80.2484 44.3796C80.3442 44.2838 80.4203 44.1702 80.4722 44.0451C80.5241 43.92 80.5508 43.7859 80.5508 43.6505C80.5508 43.5159 80.524 43.3826 80.4719 43.2584C80.4198 43.1341 80.3435 43.0215 80.2474 42.9271C80.1513 42.8326 80.0373 42.7581 79.9121 42.7081C79.7869 42.658 79.653 42.6333 79.5182 42.6354H48.6346C48.4998 42.6333 48.3659 42.658 48.2407 42.7081C48.1155 42.7581 48.0015 42.8326 47.9054 42.9271C47.8093 43.0215 47.733 43.1341 47.6809 43.2584C47.6288 43.3826 47.602 43.5159 47.602 43.6505C47.602 43.7859 47.6287 43.92 47.6806 44.0451C47.7325 44.1702 47.8085 44.2838 47.9044 44.3796C48.0003 44.4753 48.1142 44.5513 48.2394 44.6031C48.3647 44.6549 48.499 44.6815 48.6346 44.6815Z" fill="black" fill-opacity="0.12"/>
</svg>
